<svg width="30" height="33" viewBox="0 0 30 33" fill="none" xmlns="http://www.w3.org/2000/svg">
<path fill-rule="evenodd" clip-rule="evenodd" d="M6.77419 8.26018C6.77419 3.69821 10.457 0 15 0C19.543 0 23.2258 3.69821 23.2258 8.26018C23.2258 12.8221 19.543 16.5204 15 16.5204C10.457 16.5204 6.77419 12.8221 6.77419 8.26018ZM15 2.91536C12.0604 2.91536 9.67742 5.30831 9.67742 8.26018C9.67742 11.212 12.0604 13.605 15 13.605C17.9396 13.605 20.3226 11.212 20.3226 8.26018C20.3226 5.30831 17.9396 2.91536 15 2.91536Z" fill="#ECECEC"/>
<path fill-rule="evenodd" clip-rule="evenodd" d="M7.25806 22.3511C4.85295 22.3511 2.90323 24.3089 2.90323 26.7241V29.1044C2.90323 29.1396 2.92861 29.0988 2.96317 29.1044C10.9349 30.4114 19.0651 30.4114 27.0368 29.1044C27.0714 29.0988 27.0968 29.0688 27.0968 29.0336V26.7241C27.0968 24.3089 25.147 22.3511 22.7419 22.3511H22.0822C22.0312 22.3511 21.9805 22.3592 21.932 22.3751L20.2568 22.9244C16.841 24.0444 13.159 24.0444 9.74319 22.9244L8.06801 22.3751C8.01951 22.3592 7.96882 22.3511 7.91781 22.3511H7.25806ZM0 26.7241C0 22.6988 3.24955 19.4357 7.25806 19.4357H7.91781C8.27489 19.4357 8.62973 19.4924 8.96917 19.6037L10.6444 20.153C13.4746 21.081 16.5254 21.081 19.3556 20.153L21.0308 19.6037C21.3703 19.4924 21.7251 19.4357 22.0822 19.4357H22.7419C26.7505 19.4357 30 22.6988 30 26.7241V29.0336C30 30.4976 28.9434 31.7458 27.5046 31.9817C19.223 33.3394 10.777 33.3394 2.49536 31.9817C1.05655 31.7458 0 30.4976 0 29.0336V26.7241Z" fill="#ECECEC"/>
</svg>
